# WaveFront *.obj file (generated by Autodesk ATF)

mtllib Base_mujoco.mtl

g Solid1

v -0.075000 0.000000 -0.043279
v -0.075000 0.000000 0.125000
v -0.075000 0.004000 -0.043279
v -0.075000 0.004000 0.125000
v -0.074854 0.000000 -0.044350
v -0.074854 0.004000 -0.044350
v -0.074428 0.000000 -0.045342
v -0.074428 0.004000 -0.045342
v -0.073751 0.000000 -0.046183
v -0.073751 0.004000 -0.046183
v -0.073735 0.000000 -0.100922
v -0.073735 0.004000 -0.100922
v -0.073714 0.000000 -0.099108
v -0.073714 0.004000 -0.099108
v -0.072953 0.000000 -0.102559
v -0.072953 0.004000 -0.102559
v -0.072893 0.000000 -0.097489
v -0.072893 0.004000 -0.097489
v -0.052022 0.000000 -0.066768
v -0.052022 0.004000 -0.066768
v -0.051709 0.000000 -0.072243
v -0.051709 0.004000 -0.072243
v -0.050963 0.000000 -0.068456
v -0.050963 0.004000 -0.068456
v -0.050849 0.000000 -0.070446
v -0.050849 0.004000 -0.070446
v -0.036201 0.000000 -0.148499
v -0.036201 0.004000 -0.148499
v -0.035327 0.000000 -0.149307
v -0.035327 0.004000 -0.149307
v -0.034255 0.000000 -0.149823
v -0.034255 0.004000 -0.149823
v -0.033077 0.000000 -0.150000
v -0.033077 0.004000 -0.150000
v 0.033077 0.000000 -0.150000
v 0.033077 0.004000 -0.150000
v 0.034255 0.000000 -0.149823
v 0.034255 0.004000 -0.149823
v 0.035327 0.000000 -0.149307
v 0.035327 0.004000 -0.149307
v 0.036201 0.000000 -0.148499
v 0.036201 0.004000 -0.148499
v 0.050849 0.000000 -0.070446
v 0.050849 0.004000 -0.070446
v 0.050963 0.000000 -0.068456
v 0.050963 0.004000 -0.068456
v 0.051709 0.000000 -0.072243
v 0.051709 0.004000 -0.072243
v 0.052022 0.000000 -0.066768
v 0.052022 0.004000 -0.066768
v 0.072893 0.000000 -0.097489
v 0.072893 0.004000 -0.097489
v 0.072953 0.000000 -0.102559
v 0.072953 0.004000 -0.102559
v 0.073714 0.000000 -0.099108
v 0.073714 0.004000 -0.099108
v 0.073735 0.000000 -0.100922
v 0.073735 0.004000 -0.100922
v 0.073751 0.000000 -0.046183
v 0.073751 0.004000 -0.046183
v 0.074428 0.000000 -0.045342
v 0.074428 0.004000 -0.045342
v 0.074854 0.000000 -0.044350
v 0.074854 0.004000 -0.044350
v 0.075000 0.000000 -0.043279
v 0.075000 0.000000 0.125000
v 0.075000 0.004000 -0.043279
v 0.075000 0.004000 0.125000
vt 0.000000 0.302110 0.000000
vt 0.000000 0.100703 0.000000
vt 0.000000 -0.100703 0.000000
vt 0.000000 -0.302110 0.000000
vt 0.400000 -0.302110 0.000000
vt 0.400000 -0.100703 0.000000
vt 0.400000 0.100703 0.000000
vt 0.400000 0.302110 0.000000
vt 0.376600 0.400000 0.000000
vt 0.376600 0.000000 0.000000
vt 3.369704 0.000000 0.000000
vt 3.369704 0.400000 0.000000
vt -0.400000 0.274575 0.000000
vt -0.400000 0.091525 0.000000
vt -0.400000 -0.091525 0.000000
vt -0.400000 -0.274575 0.000000
vt -0.000000 -0.274575 0.000000
vt -0.000000 -0.091525 0.000000
vt -0.000000 0.091525 0.000000
vt -0.000000 0.274575 0.000000
vt 3.623400 0.000000 0.000000
vt 3.623400 0.400000 0.000000
vt 0.327745 0.400000 0.000000
vt 0.327745 0.000000 0.000000
vt 8.498933 -7.289330 0.000000
vt 8.660769 -7.371399 0.000000
vt 8.842214 -7.373521 0.000000
vt 9.005926 -7.295259 0.000000
vt 13.599878 -3.620098 0.000000
vt 13.680727 -3.532738 0.000000
vt 13.732289 -3.425456 0.000000
vt 13.750000 -3.307750 0.000000
vt 13.750000 3.307750 0.000000
vt 13.732289 3.425456 0.000000
vt 13.680727 3.532738 0.000000
vt 13.599878 3.620098 0.000000
vt 9.005926 7.295259 0.000000
vt 8.842214 7.373521 0.000000
vt 8.660769 7.371399 0.000000
vt 8.498933 7.289330 0.000000
vt 5.974314 5.170923 0.000000
vt 5.794555 5.084892 0.000000
vt 5.595594 5.096274 0.000000
vt 5.426818 5.202243 0.000000
vt 3.368328 7.375098 0.000000
vt 3.284155 7.442751 0.000000
vt 3.184951 7.485422 0.000000
vt 3.077947 7.500000 0.000000
vt -13.750000 7.500000 0.000000
vt -13.750000 -7.500000 0.000000
vt 3.077947 -7.500000 0.000000
vt 3.184951 -7.485422 0.000000
vt 3.284155 -7.442751 0.000000
vt 3.368328 -7.375098 0.000000
vt 5.426818 -5.202243 0.000000
vt 5.595594 -5.096274 0.000000
vt 5.794555 -5.084892 0.000000
vt 5.974314 -5.170923 0.000000
vt -0.400000 0.162484 0.000000
vt -0.400000 0.054161 0.000000
vt -0.400000 -0.054161 0.000000
vt -0.400000 -0.162484 0.000000
vt -0.000000 -0.162484 0.000000
vt -0.000000 -0.054161 0.000000
vt -0.000000 0.054161 0.000000
vt -0.000000 0.162484 0.000000
vt 0.172053 0.400000 0.000000
vt 0.172053 0.000000 0.000000
vt 17.000000 0.000000 0.000000
vt 17.000000 0.400000 0.000000
vt -0.400000 0.162484 0.000000
vt -0.400000 0.054161 0.000000
vt -0.400000 -0.054161 0.000000
vt -0.400000 -0.162484 0.000000
vt -0.000000 -0.162484 0.000000
vt -0.000000 -0.054161 0.000000
vt -0.000000 0.054161 0.000000
vt -0.000000 0.162484 0.000000
vt 0.172053 0.400000 0.000000
vt 0.172053 0.000000 0.000000
vt 3.165158 0.000000 0.000000
vt 3.165158 0.400000 0.000000
vt 0.000000 0.302110 0.000000
vt 0.000000 0.100703 0.000000
vt 0.000000 -0.100703 0.000000
vt 0.000000 -0.302110 0.000000
vt 0.400000 -0.302110 0.000000
vt 0.400000 -0.100703 0.000000
vt 0.400000 0.100703 0.000000
vt 0.400000 0.302110 0.000000
vt 0.376600 0.400000 0.000000
vt 0.376600 0.000000 0.000000
vt 3.672255 0.000000 0.000000
vt 3.672255 0.400000 0.000000
vt -0.400000 0.179211 0.000000
vt -0.400000 0.059737 0.000000
vt -0.400000 -0.059737 0.000000
vt -0.400000 -0.179211 0.000000
vt -0.000000 -0.179211 0.000000
vt -0.000000 -0.059737 0.000000
vt -0.000000 0.059737 0.000000
vt -0.000000 0.179211 0.000000
vt 6.807750 0.000000 0.000000
vt 6.807750 0.400000 0.000000
vt 0.192250 0.400000 0.000000
vt 0.192250 0.000000 0.000000
vt -0.400000 0.179211 0.000000
vt -0.400000 0.059737 0.000000
vt -0.400000 -0.059737 0.000000
vt -0.400000 -0.179211 0.000000
vt -0.000000 -0.179211 0.000000
vt -0.000000 -0.059737 0.000000
vt -0.000000 0.059737 0.000000
vt -0.000000 0.179211 0.000000
vt -0.400000 0.274575 0.000000
vt -0.400000 0.091525 0.000000
vt -0.400000 -0.091525 0.000000
vt -0.400000 -0.274575 0.000000
vt -0.000000 -0.274575 0.000000
vt -0.000000 -0.091525 0.000000
vt -0.000000 0.091525 0.000000
vt -0.000000 0.274575 0.000000
vt 6.210874 0.000000 0.000000
vt 6.210874 0.400000 0.000000
vt 0.327745 0.400000 0.000000
vt 0.327745 0.000000 0.000000
vt 16.827948 0.000000 0.000000
vt 16.827948 0.400000 0.000000
vt 0.000000 0.400000 0.000000
vt 0.000000 0.000000 0.000000
vt 0.000000 0.000000 0.000000
vt 15.000000 0.000000 0.000000
vt 15.000000 0.400000 0.000000
vt 0.000000 0.400000 0.000000
vt 6.075379 0.000000 0.000000
vt 6.075379 0.400000 0.000000
vt 0.192250 0.400000 0.000000
vt 0.192250 0.000000 0.000000
vt -9.005926 -7.295259 0.000000
vt -8.842214 -7.373521 0.000000
vt -8.660769 -7.371399 0.000000
vt -8.498933 -7.289330 0.000000
vt -5.974314 -5.170923 0.000000
vt -5.794555 -5.084892 0.000000
vt -5.595594 -5.096274 0.000000
vt -5.426818 -5.202243 0.000000
vt -3.368328 -7.375098 0.000000
vt -3.284155 -7.442751 0.000000
vt -3.184951 -7.485422 0.000000
vt -3.077947 -7.500000 0.000000
vt 13.750000 -7.500000 0.000000
vt 13.750000 7.500000 0.000000
vt -3.077947 7.500000 0.000000
vt -3.184951 7.485422 0.000000
vt -3.284155 7.442751 0.000000
vt -3.368328 7.375098 0.000000
vt -5.426818 5.202243 0.000000
vt -5.595594 5.096274 0.000000
vt -5.794555 5.084892 0.000000
vt -5.974314 5.170923 0.000000
vt -8.498933 7.289330 0.000000
vt -8.660769 7.371399 0.000000
vt -8.842214 7.373521 0.000000
vt -9.005926 7.295259 0.000000
vt -13.599878 3.620098 0.000000
vt -13.680727 3.532738 0.000000
vt -13.732289 3.425456 0.000000
vt -13.750000 3.307750 0.000000
vt -13.750000 -3.307750 0.000000
vt -13.732289 -3.425456 0.000000
vt -13.680727 -3.532738 0.000000
vt -13.599878 -3.620098 0.000000
vn -76.604444 0.000000 64.278764
vn -98.112226 0.000000 19.338845
vn -95.266783 0.000000 -30.401322
vn -68.774396 0.000000 -72.595334
vn -68.774396 0.000000 -72.595334
vn -95.266783 0.000000 -30.401322
vn -98.112226 0.000000 19.338845
vn -76.604444 0.000000 64.278764
vn -68.774396 0.000000 -72.595334
vn -68.774396 0.000000 -72.595334
vn -68.774396 0.000000 -72.595334
vn -68.774396 0.000000 -72.595334
vn -76.604444 0.000000 64.278764
vn -97.121722 0.000000 23.819554
vn -97.652262 0.000000 -21.541494
vn -78.086883 0.000000 -62.469506
vn -78.086883 0.000000 -62.469506
vn -97.652262 0.000000 -21.541494
vn -97.121722 0.000000 23.819554
vn -76.604444 0.000000 64.278764
vn -76.604444 0.000000 64.278764
vn -76.604444 0.000000 64.278764
vn -76.604444 0.000000 64.278764
vn -76.604444 0.000000 64.278764
vn 0.000000 -100.000000 0.000000
vn 0.000000 -100.000000 0.000000
vn 0.000000 -100.000000 0.000000
vn 0.000000 -100.000000 0.000000
vn 0.000000 -100.000000 0.000000
vn 0.000000 -100.000000 0.000000
vn 0.000000 -100.000000 0.000000
vn 0.000000 -100.000000 0.000000
vn 0.000000 -100.000000 0.000000
vn 0.000000 -100.000000 0.000000
vn 0.000000 -100.000000 0.000000
vn 0.000000 -100.000000 0.000000
vn 0.000000 -100.000000 0.000000
vn 0.000000 -100.000000 0.000000
vn 0.000000 -100.000000 0.000000
vn 0.000000 -100.000000 0.000000
vn 0.000000 -100.000000 0.000000
vn 0.000000 -100.000000 0.000000
vn 0.000000 -100.000000 0.000000
vn 0.000000 -100.000000 0.000000
vn 0.000000 -100.000000 0.000000
vn 0.000000 -100.000000 0.000000
vn 0.000000 -100.000000 0.000000
vn 0.000000 -100.000000 0.000000
vn 0.000000 -100.000000 0.000000
vn 0.000000 -100.000000 0.000000
vn 0.000000 -100.000000 0.000000
vn 0.000000 -100.000000 0.000000
vn 0.000000 -100.000000 0.000000
vn 0.000000 -100.000000 0.000000
vn 0.000000 -100.000000 0.000000
vn 0.000000 -100.000000 0.000000
vn 0.000000 -100.000000 0.000000
vn 0.000000 -100.000000 0.000000
vn -100.000000 0.000000 0.000000
vn -96.355546 0.000000 -26.750866
vn -85.687828 0.000000 -51.551884
vn -68.774396 0.000000 -72.595334
vn -68.774396 0.000000 -72.595334
vn -85.687828 0.000000 -51.551884
vn -96.355546 0.000000 -26.750866
vn -100.000000 0.000000 0.000000
vn -100.000000 0.000000 0.000000
vn -100.000000 0.000000 0.000000
vn -100.000000 0.000000 0.000000
vn -100.000000 0.000000 0.000000
vn 68.774396 0.000000 -72.595334
vn 85.687828 0.000000 -51.551884
vn 96.355546 0.000000 -26.750866
vn 100.000000 0.000000 0.000000
vn 100.000000 0.000000 0.000000
vn 96.355546 0.000000 -26.750866
vn 85.687828 0.000000 -51.551884
vn 68.774396 0.000000 -72.595334
vn 68.774396 0.000000 -72.595334
vn 68.774396 0.000000 -72.595334
vn 68.774396 0.000000 -72.595334
vn 68.774396 0.000000 -72.595334
vn 68.774396 0.000000 -72.595334
vn 95.266783 0.000000 -30.401322
vn 98.112226 0.000000 19.338845
vn 76.604444 0.000000 64.278764
vn 76.604444 0.000000 64.278764
vn 98.112226 0.000000 19.338845
vn 95.266783 0.000000 -30.401322
vn 68.774396 0.000000 -72.595334
vn 76.604444 0.000000 64.278764
vn 76.604444 0.000000 64.278764
vn 76.604444 0.000000 64.278764
vn 76.604444 0.000000 64.278764
vn -78.086883 0.000000 -62.469506
vn -56.247008 0.000000 -82.681763
vn -29.426381 0.000000 -95.572424
vn 0.000000 0.000000 -100.000000
vn 0.000000 0.000000 -100.000000
vn -29.426381 0.000000 -95.572424
vn -56.247008 0.000000 -82.681763
vn -78.086883 0.000000 -62.469506
vn 0.000000 0.000000 -100.000000
vn 0.000000 0.000000 -100.000000
vn 0.000000 0.000000 -100.000000
vn 0.000000 0.000000 -100.000000
vn 0.000000 0.000000 -100.000000
vn 29.426381 0.000000 -95.572424
vn 56.247008 0.000000 -82.681763
vn 78.086883 0.000000 -62.469506
vn 78.086883 0.000000 -62.469506
vn 56.247008 0.000000 -82.681763
vn 29.426381 0.000000 -95.572424
vn 0.000000 0.000000 -100.000000
vn 78.086883 0.000000 -62.469506
vn 97.652262 0.000000 -21.541494
vn 97.121722 0.000000 23.819554
vn 76.604444 0.000000 64.278764
vn 76.604444 0.000000 64.278764
vn 97.121722 0.000000 23.819554
vn 97.652262 0.000000 -21.541494
vn 78.086883 0.000000 -62.469506
vn 78.086883 0.000000 -62.469506
vn 78.086883 0.000000 -62.469506
vn 78.086883 0.000000 -62.469506
vn 78.086883 0.000000 -62.469506
vn 100.000000 0.000000 0.000000
vn 100.000000 0.000000 0.000000
vn 100.000000 0.000000 0.000000
vn 100.000000 0.000000 0.000000
vn 0.000000 0.000000 100.000000
vn 0.000000 0.000000 100.000000
vn 0.000000 0.000000 100.000000
vn 0.000000 0.000000 100.000000
vn -78.086883 0.000000 -62.469506
vn -78.086883 0.000000 -62.469506
vn -78.086883 0.000000 -62.469506
vn -78.086883 0.000000 -62.469506
vn 0.000000 100.000000 0.000000
vn 0.000000 100.000000 0.000000
vn 0.000000 100.000000 0.000000
vn 0.000000 100.000000 0.000000
vn 0.000000 100.000000 0.000000
vn 0.000000 100.000000 0.000000
vn 0.000000 100.000000 0.000000
vn 0.000000 100.000000 0.000000
vn 0.000000 100.000000 0.000000
vn 0.000000 100.000000 0.000000
vn 0.000000 100.000000 0.000000
vn 0.000000 100.000000 0.000000
vn 0.000000 100.000000 0.000000
vn 0.000000 100.000000 0.000000
vn 0.000000 100.000000 0.000000
vn 0.000000 100.000000 0.000000
vn 0.000000 100.000000 0.000000
vn 0.000000 100.000000 0.000000
vn 0.000000 100.000000 0.000000
vn 0.000000 100.000000 0.000000
vn 0.000000 100.000000 0.000000
vn 0.000000 100.000000 0.000000
vn 0.000000 100.000000 0.000000
vn 0.000000 100.000000 0.000000
vn 0.000000 100.000000 0.000000
vn 0.000000 100.000000 0.000000
vn 0.000000 100.000000 0.000000
vn 0.000000 100.000000 0.000000
vn 0.000000 100.000000 0.000000
vn 0.000000 100.000000 0.000000
vn 0.000000 100.000000 0.000000
vn 0.000000 100.000000 0.000000
vn 0.000000 100.000000 0.000000
vn 0.000000 100.000000 0.000000
usemtl 80,179,194
f 22/8/8 21/1/1 26/7/7
f 26/7/7 21/1/1 25/2/2
f 26/7/7 25/2/2 24/6/6
f 24/6/6 25/2/2 23/3/3
f 24/6/6 23/3/3 20/5/5
f 20/5/5 23/3/3 19/4/4
f 19/10/10 9/11/11 20/9/9
f 20/9/9 9/11/11 10/12/12
f 17/20/20 18/13/13 13/19/19
f 13/19/19 18/13/13 14/14/14
f 13/19/19 14/14/14 11/18/18
f 11/18/18 14/14/14 12/15/15
f 11/18/18 12/15/15 15/17/17
f 15/17/17 12/15/15 16/16/16
f 22/22/22 18/23/23 21/21/21
f 21/21/21 18/23/23 17/24/24
f 21/58/58 17/25/25 15/28/28
f 15/28/28 17/25/25 13/26/26
f 15/28/28 13/26/26 11/27/27
f 15/28/28 27/29/29 21/58/58
f 21/58/58 27/29/29 25/57/57
f 25/57/57 27/29/29 33/32/32
f 25/57/57 33/32/32 35/33/33
f 29/30/30 31/31/31 27/29/29
f 27/29/29 31/31/31 33/32/32
f 37/34/34 41/36/36 35/33/33
f 35/33/33 41/36/36 43/42/42
f 35/33/33 43/42/42 25/57/57
f 25/57/57 43/42/42 23/56/56
f 23/56/56 43/42/42 45/43/43
f 23/56/56 45/43/43 49/44/44
f 37/34/34 39/35/35 41/36/36
f 43/42/42 41/36/36 47/41/41
f 47/41/41 41/36/36 53/37/37
f 47/41/41 53/37/37 51/40/40
f 51/40/40 53/37/37 55/39/39
f 55/39/39 53/37/37 57/38/38
f 59/45/45 65/48/48 49/44/44
f 49/44/44 65/48/48 66/49/49
f 49/44/44 66/49/49 2/50/50
f 59/45/45 61/46/46 65/48/48
f 65/48/48 61/46/46 63/47/47
f 49/44/44 2/50/50 19/55/55
f 19/55/55 2/50/50 1/51/51
f 19/55/55 1/51/51 9/54/54
f 9/54/54 1/51/51 7/53/53
f 7/53/53 1/51/51 5/52/52
f 19/55/55 23/56/56 49/44/44
f 1/66/66 3/59/59 5/65/65
f 5/65/65 3/59/59 6/60/60
f 5/65/65 6/60/60 8/61/61
f 10/62/62 9/63/63 8/61/61
f 8/61/61 9/63/63 7/64/64
f 8/61/61 7/64/64 5/65/65
f 1/68/68 2/69/69 3/67/67
f 3/67/67 2/69/69 4/70/70
f 59/78/78 60/71/71 61/77/77
f 61/77/77 60/71/71 62/72/72
f 61/77/77 62/72/72 64/73/73
f 67/74/74 65/75/75 64/73/73
f 64/73/73 65/75/75 63/76/76
f 64/73/73 63/76/76 61/77/77
f 59/80/80 49/81/81 60/79/79
f 60/79/79 49/81/81 50/82/82
f 50/90/90 49/83/83 46/89/89
f 46/89/89 49/83/83 45/84/84
f 46/89/89 45/84/84 44/88/88
f 44/88/88 45/84/84 43/85/85
f 44/88/88 43/85/85 48/87/87
f 48/87/87 43/85/85 47/86/86
f 47/92/92 51/93/93 48/91/91
f 48/91/91 51/93/93 52/94/94
f 27/102/102 28/95/95 29/101/101
f 29/101/101 28/95/95 30/96/96
f 29/101/101 30/96/96 32/97/97
f 34/98/98 33/99/99 32/97/97
f 32/97/97 33/99/99 31/100/100
f 32/97/97 31/100/100 29/101/101
f 34/104/104 36/105/105 33/103/103
f 33/103/103 36/105/105 35/106/106
f 35/114/114 36/107/107 37/113/113
f 37/113/113 36/107/107 38/108/108
f 37/113/113 38/108/108 40/109/109
f 42/110/110 41/111/111 40/109/109
f 40/109/109 41/111/111 39/112/112
f 40/109/109 39/112/112 37/113/113
f 53/122/122 54/115/115 57/121/121
f 57/121/121 54/115/115 58/116/116
f 57/121/121 58/116/116 55/120/120
f 55/120/120 58/116/116 56/117/117
f 55/120/120 56/117/117 51/119/119
f 51/119/119 56/117/117 52/118/118
f 42/124/124 54/125/125 41/123/123
f 41/123/123 54/125/125 53/126/126
f 67/128/128 68/129/129 65/127/127
f 65/127/127 68/129/129 66/130/130
f 2/131/131 66/132/132 4/134/134
f 4/134/134 66/132/132 68/133/133
f 16/136/136 28/137/137 15/135/135
f 15/135/135 28/137/137 27/138/138
f 12/140/140 14/141/141 16/139/139
f 16/139/139 14/141/141 18/142/142
f 16/139/139 18/142/142 22/143/143
f 16/139/139 22/143/143 28/172/172
f 28/172/172 22/143/143 26/144/144
f 28/172/172 26/144/144 34/169/169
f 34/169/169 26/144/144 36/168/168
f 36/168/168 26/144/144 44/159/159
f 36/168/168 44/159/159 42/165/165
f 42/165/165 44/159/159 48/160/160
f 42/165/165 48/160/160 54/164/164
f 54/164/164 48/160/160 52/161/161
f 54/164/164 52/161/161 56/162/162
f 26/144/144 24/145/145 44/159/159
f 44/159/159 24/145/145 46/158/158
f 46/158/158 24/145/145 50/157/157
f 50/157/157 24/145/145 20/146/146
f 50/157/157 20/146/146 4/151/151
f 4/151/151 20/146/146 3/150/150
f 3/150/150 20/146/146 10/147/147
f 3/150/150 10/147/147 8/148/148
f 8/148/148 6/149/149 3/150/150
f 4/151/151 68/152/152 50/157/157
f 50/157/157 68/152/152 67/153/153
f 50/157/157 67/153/153 60/156/156
f 60/156/156 67/153/153 62/155/155
f 62/155/155 67/153/153 64/154/154
f 56/162/162 58/163/163 54/164/164
f 40/166/166 38/167/167 42/165/165
f 42/165/165 38/167/167 36/168/168
f 34/169/169 32/170/170 28/172/172
f 28/172/172 32/170/170 30/171/171
# 68 vertices
# 172 texture params
# 172 normals
# 132 facets

# 1 groups
